<?xml version="1.0" encoding="utf-8"?>
<svg version="1.1" xmlns:xlink="http://www.w3.org/1999/xlink" width="12px" height="12px" viewBox="675 429.5  12 12" xmlns="http://www.w3.org/2000/svg">
  <path d="M 681 429.5  C 684.36 429.5  687 432.14  687 435.5  C 687 438.86  684.36 441.5  681 441.5  C 677.64 441.5  675 438.86  675 435.5  C 675 432.14  677.64 429.5  681 429.5  Z " fill-rule="nonzero" fill="#ffffff" stroke="none" />
  <path d="M 681 430  C 684.08 430  686.5 432.42  686.5 435.5  C 686.5 438.58  684.08 441  681 441  C 677.92 441  675.5 438.58  675.5 435.5  C 675.5 432.42  677.92 430  681 430  Z " stroke-width="1" stroke="#797979" fill="none" />
  <path d="M 681 438.5  C 679.32 438.5  678 437.18  678 435.5  C 678 433.82  679.32 432.5  681 432.5  C 682.68 432.5  684 433.82  684 435.5  C 684 437.18  682.68 438.5  681 438.5  " fill-rule="nonzero" fill="#797979" stroke="none" />
</svg>