<?xml version="1.0" encoding="utf-8"?>
<svg version="1.1" xmlns:xlink="http://www.w3.org/1999/xlink" width="12px" height="12px" viewBox="408 513  12 12" xmlns="http://www.w3.org/2000/svg">
  <path d="M 414 513  C 417.36 513  420 515.64  420 519  C 420 522.36  417.36 525  414 525  C 410.64 525  408 522.36  408 519  C 408 515.64  410.64 513  414 513  Z " fill-rule="nonzero" fill="#ffffff" stroke="none" />
  <path d="M 414 513.5  C 417.08 513.5  419.5 515.92  419.5 519  C 419.5 522.08  417.08 524.5  414 524.5  C 410.92 524.5  408.5 522.08  408.5 519  C 408.5 515.92  410.92 513.5  414 513.5  Z " stroke-width="1" stroke="#797979" fill="none" />
  <path d="M 414 522  C 412.32 522  411 520.68  411 519  C 411 517.32  412.32 516  414 516  C 415.68 516  417 517.32  417 519  C 417 520.68  415.68 522  414 522  " fill-rule="nonzero" fill="#797979" stroke="none" />
</svg>